<?xml version="1.0" standalone="no"?><!DOCTYPE svg PUBLIC "-//W3C//DTD SVG 1.1//EN" "http://www.w3.org/Graphics/SVG/1.1/DTD/svg11.dtd"><svg t="1642472239319" class="icon" viewBox="0 0 1024 1024" version="1.1" xmlns="http://www.w3.org/2000/svg" p-id="4722" xmlns:xlink="http://www.w3.org/1999/xlink" width="200" height="200"><defs><style type="text/css"></style></defs><path d="M947.2 0H76.8a76.8 76.8 0 0 0-76.8 76.8v120.064a76.8 76.8 0 0 0 76.8 76.8h14.336V647.68a128 128 0 0 0 128 128h207.616l-160.256 160.256a51.2 51.2 0 1 0 72.448 72.448L512 837.12l171.008 171.264a51.2 51.2 0 0 0 36.352 15.104 51.2 51.2 0 0 0 36.096-87.552l-161.28-160.256h210.944a128 128 0 0 0 128-128V273.664H947.2a76.8 76.8 0 0 0 76.8-76.8V76.8a76.8 76.8 0 0 0-76.8-76.8z m-25.6 102.4v68.096H102.4V102.4z m-90.88 545.28a25.6 25.6 0 0 1-25.6 25.6H219.648a25.6 25.6 0 0 1-25.6-25.6V273.664h636.672z" p-id="4723"></path><path d="M431.616 462.08h153.6a51.2 51.2 0 0 0 0-102.4h-153.6a51.2 51.2 0 0 0 0 102.4zM371.456 627.968h274.176a51.2 51.2 0 0 0 0-102.4H371.456a51.2 51.2 0 0 0 0 102.4z" p-id="4724"></path></svg>