<?xml version="1.0" standalone="no"?><!DOCTYPE svg PUBLIC "-//W3C//DTD SVG 1.1//EN" "http://www.w3.org/Graphics/SVG/1.1/DTD/svg11.dtd"><svg t="1657000073295" class="icon" viewBox="0 0 1024 1024" version="1.1" xmlns="http://www.w3.org/2000/svg" p-id="2599" xmlns:xlink="http://www.w3.org/1999/xlink" width="200" height="200"><defs><style type="text/css">@font-face { font-family: feedback-iconfont; src: url("//at.alicdn.com/t/font_1031158_u69w8yhxdu.woff2?t=1630033759944") format("woff2"), url("//at.alicdn.com/t/font_1031158_u69w8yhxdu.woff?t=1630033759944") format("woff"), url("//at.alicdn.com/t/font_1031158_u69w8yhxdu.ttf?t=1630033759944") format("truetype"); }
</style></defs><path d="M901.12 805.547H157.013V184.32c0-20.48-13.653-34.133-34.133-34.133S88.747 163.84 88.747 184.32v662.187c0 20.48 13.653 34.133 34.133 34.133h778.24c20.48 0 34.133-13.653 34.133-34.133 0-20.48-13.653-40.96-34.133-40.96zM259.413 655.36h13.654c13.653 0 27.306-6.827 34.133-20.48l54.613-157.013L628.053 614.4c13.654 6.827 34.134 0 40.96-13.653l184.32-307.2c6.827-13.654 6.827-34.134-13.653-40.96-13.653-6.827-34.133-6.827-47.787 13.653l-163.84 279.893-266.24-143.36h-27.306c-6.826 0-20.48 13.654-20.48 20.48l-75.094 184.32c-6.826 20.48 0 34.134 20.48 47.787z" fill="#ffffff" p-id="2600"></path></svg>